<svg width="29" height="28" viewBox="0 0 29 28" fill="none" xmlns="http://www.w3.org/2000/svg">
<path d="M3.5 4C2.96957 4 2.46086 4.21071 2.08579 4.58579C1.71071 4.96086 1.5 5.46957 1.5 6V25C1.5 25.5304 1.71071 26.0391 2.08579 26.4142C2.46086 26.7893 2.96957 27 3.5 27H25.5C26.0304 27 26.5391 26.7893 26.9142 26.4142C27.2893 26.0391 27.5 25.5304 27.5 25V6C27.5 5.46957 27.2893 4.96086 26.9142 4.58579C26.5391 4.21071 26.0304 4 25.5 4H21.5M7.5 1V7M21.5 1V7M7.5 4H17.5" stroke="white" stroke-width="2" stroke-linecap="round" stroke-linejoin="round"/>
<path d="M12.8761 9.12402C12.6108 9.12402 12.3565 9.22938 12.169 9.41692C11.9814 9.60445 11.8761 9.85881 11.8761 10.124V12.936H9.06006C8.79484 12.936 8.54049 13.0414 8.35295 13.2289C8.16542 13.4165 8.06006 13.6708 8.06006 13.936V17.186C8.06006 17.4512 8.16542 17.7056 8.35295 17.8931C8.54049 18.0807 8.79484 18.186 9.06006 18.186H11.8741V20.998C11.8741 21.2632 11.9794 21.5176 12.167 21.7051C12.3545 21.8927 12.6088 21.998 12.8741 21.998H16.1241C16.2554 21.998 16.3854 21.9722 16.5067 21.9219C16.6281 21.8716 16.7383 21.798 16.8312 21.7051C16.924 21.6123 16.9977 21.502 17.0479 21.3807C17.0982 21.2594 17.1241 21.1293 17.1241 20.998V18.186H19.9361C20.2013 18.186 20.4556 18.0807 20.6432 17.8931C20.8307 17.7056 20.9361 17.4512 20.9361 17.186V13.936C20.9361 13.6708 20.8307 13.4165 20.6432 13.2289C20.4556 13.0414 20.2013 12.936 19.9361 12.936H17.1261V10.124C17.1261 9.85881 17.0207 9.60445 16.8332 9.41692C16.6456 9.22938 16.3913 9.12402 16.1261 9.12402H12.8761Z" stroke="white" stroke-width="2" stroke-linecap="round" stroke-linejoin="round"/>
</svg>
